# xmcd CD Database Entry
#
# Track frame offsets:
# 150
# 23955
# 63880
# 113355
# 134305
# 151847
# 170552
# 188730
# 204635
# 233257
# 258322
#
# Disc length: 3825 seconds
#
# Revision: 3
# Processed by: cddbd v1.4b41PL1 Copyright (c) Steve Scherf et al.
# Submitted via: tcd 2.0b
#
DISCID=820eef0b
DTITLE=Blow - Jazz Trumpet Virtuosos
DYEAR=1900
DGENRE=
TTITLE0=Billie's Bounce
TTITLE1=Guaruja
TTITLE2=Playing With Fire
TTITLE3=Short Stop
TTITLE4=Tromba
TTITLE5=Struttin' With Some BBQ
TTITLE6=Been There, Done That, Got The T-Shirt
TTITLE7=Rockin' Chair
TTITLE8=Ronita's Fantasy
TTITLE9=Amorado
TTITLE10=San Miguel
EXTD=
EXTT0=
EXTT1=
EXTT2=
EXTT3=
EXTT4=
EXTT5=
EXTT6=
EXTT7=
EXTT8=
EXTT9=
EXTT10=
PLAYORDER=
